<?xml version="1.0" encoding="utf-8"?>
<!-- Generator: Adobe Illustrator 19.0.0, SVG Export Plug-In . SVG Version: 6.00 Build 0)  -->
<!DOCTYPE svg PUBLIC "-//W3C//DTD SVG 1.1//EN" "http://www.w3.org/Graphics/SVG/1.1/DTD/svg11.dtd">
<svg version="1.1" id="Layer_1" xmlns="http://www.w3.org/2000/svg" xmlns:xlink="http://www.w3.org/1999/xlink" x="0px" y="0px"
	 viewBox="0 0 1130 240" enable-background="new 0 0 1130 240" xml:space="preserve">
<g id="XMLID_1_">
	<g id="XMLID_3_">
		<path id="XMLID_60_" fill="#F9E3D2" d="M553.1,35.1c15.4-8,26.7-17.8,36.5-14.9c11.2,3.3,10.2,11.5,3,20.2
			c-6.2,7.4-4.3,29.1-2.5,39.1c2.5,13.9,3.6,15.8,15.3,28c7.2,7.5,15.3,20.9,18.8,45.5c2.2,15.7-2.2,32.5-15.5,52.2
			c-6.4,9.5-18.9,16.5-29.6,17.6c-16,1.6-32.9,0-49.2,0c-17.9,0-30.8-6.2-38.7-23.5c-9.5-20.9-15-43.7-5.7-67.1
			c8.3-21,11.2-22.1,18.2-31.4c4.5-5.9,10.5-13.6,10.4-21.1c-0.3-18.1-9-19.6,2.3-29.8C526.5,40.5,541.4,41.2,553.1,35.1z"/>
		<path id="XMLID_59_" fill="#F9E3D2" d="M514,95.6c1.5-8.3-17.1-18.9-24.5-21.2c-12.6-3.8-25.2,0.5-35.8,7.8
			c-9.6,6.6-14.1,17.4-13.9,28.7c0.2,12.2,10.8,20.9,19.9,27.9c9.6,7.3,20,13.6,30,20.3c3.1-4.6,3.5-10.8,3-16.2
			c-15.4-1.3-43.3-22.9-39.7-40.5c1.8-8.8,13.6-15.3,21.9-16.4c10.9-1.4,19.2,5,27.2,11.9c2.9,2.6,6.8,7.2,8.6,9.1L514,95.6z"/>
		<path id="XMLID_58_" fill="#DC7676" d="M587,92.1c0,0,8.6,19,13.9,27.3c6.1,9.6,10.3,18.5,12.1,29.6c3.3,20.4-4.7,50.3-23.9,61.7
			c-9.9,5.9-20.3,0.6-31.8,0c-12.2-0.6-16.6,0.4-28.5,2.3c-12.6,2.1-23.1-6.1-28.6-16.7c-4.9-9.4-6.3-14.7-7.7-25.4
			c-2.2-15.8,0.3-30.1,3.6-39.7c2.2-6.4,8.6-16.7,12-22.6c4.8-8.4,10.8-17.6,10.8-17.6c5.5-3.4,14.4-0.2,20.1,1c8,1.7,16,4,24.2,4.6
			C565.9,96.7,576.3,98.4,587,92.1z"/>
		<g id="XMLID_47_">
			<path id="XMLID_57_" fill="#F79029" d="M514.8,156.2c1.9-1.4,4-2.5,6.1-3.3c2.2-0.8,4.5-1.3,6.7-1.6c2.3-0.2,4.6-0.1,6.9,0.2
				c2.3,0.4,4.5,1,6.6,1.9c2.1,0.9,4,2.3,5.8,3.8c1.7,1.4,3.3,3.1,4.7,5c1.4,1.9,2.5,3.9,3.3,6c0.8,2.2,1.3,4.4,1.5,6.7
				c0.2,2.3,0.2,4.6-0.1,6.9c-0.4,2.3-1.1,4.4-2,6.6c-0.9,2.1-2.1,4.1-3.6,5.9c-1.4,1.7-3,3.5-4.9,4.8c-1.9,1.4-4,2.5-6.1,3.3
				c-2.2,0.8-4.5,1.2-6.7,1.4c-2.3,0.2-4.6,0.3-6.9-0.1c-2.3-0.4-4.5-1.1-6.6-2c-2.1-0.9-4.1-2-6-3.5c-1.8-1.4-3.3-3.1-4.7-5.1
				c-1.4-1.9-2.6-3.9-3.4-6c-0.8-2.2-1.2-4.5-1.5-6.7c-0.2-2.3-0.1-4.6,0.3-6.9c0.4-2.3,0.8-4.6,1.7-6.7c0.9-2.1,2.3-4,3.7-5.8
				C511.4,159.3,512.9,157.6,514.8,156.2z"/>
			<path id="XMLID_56_" fill="#FFEFD5" d="M516.1,158c2.1-1.5,4.5-2.4,6.9-3.2c2.4-0.8,4.9-1.1,7.4-1.1c2.5,0,5.1,0,7.5,0.7
				c2.4,0.8,4.9,1.7,6.9,3.2c2,1.5,3.6,3.6,5.1,5.7c1.5,2.1,2.6,4.4,3.4,6.8c0.8,2.4,0.8,4.9,0.7,7.5c0,2.5,0.4,5.2-0.4,7.6
				c-0.8,2.4-1.9,4.8-3.4,6.9c-1.5,2-3.6,3.6-5.7,5.1c-2.1,1.5-4.5,2.4-6.8,3.1c-2.4,0.8-4.9,1.4-7.4,1.4c-2.5,0-5.1-0.2-7.5-1
				c-2.4-0.8-4.9-1.7-6.9-3.2c-2-1.5-4-3.3-5.5-5.4c-1.5-2.1-2-4.8-2.8-7.1c-0.8-2.4-1.3-4.9-1.3-7.4c0-2.5,0.2-5.1,1-7.5
				c0.8-2.4,2.3-4.5,3.8-6.5C512.4,161.6,514,159.6,516.1,158z"/>
			<path id="XMLID_55_" fill="#FBAE25" d="M512.8,188.8c1.8-0.3,14.7-8.9,14.6-10.6c0,0-15.8-2.8-17.5-2.4
				C508.1,176.1,510.9,189.1,512.8,188.8z"/>
			<path id="XMLID_54_" fill="#FBAE25" d="M528.4,177.1c-1.5-2.8-8.3-15.6-10-16.1c-1.7-0.6-9.9,10.5-8.5,11.8
				C511.3,174,529.2,178.6,528.4,177.1z"/>
			<path id="XMLID_53_" fill="#FBAE25" d="M540.6,194.8c-0.1-3-8.2-14.8-10.2-14.4c-2,0.3-2.8,15.3-1.6,17.9
				C529.7,200.1,540.7,198,540.6,194.8z"/>
			<path id="XMLID_52_" fill="#FBAE25" d="M525.2,196.9c1.4-1.2,4.2-15.7,3.2-16.3c-1-0.6-13.6,8.7-14.3,10.5
				C513.5,193,522.8,199,525.2,196.9z"/>
			<path id="XMLID_51_" fill="#FBAE25" d="M548.5,168.9c-6.2,2.7-16.1,7.4-15.8,8.6c0.2,0.7,14.5,2.7,17.3,3.6
				C553.2,182.1,550.9,167.8,548.5,168.9z"/>
			<path id="XMLID_50_" fill="#FBAE25" d="M532.3,179c-0.9,1.5,7.9,10.3,11.2,14.2c1.2,1.4,8.5-6.5,6.9-9
				C548.6,181.4,533.2,177.5,532.3,179z"/>
			<path id="XMLID_49_" fill="#FBAE25" d="M520.8,159.5c2.1,4.7,7.1,16.8,9.1,17.2c2,0.4,4.4-16.7,2.6-19
				C530.7,155.3,519.5,156.6,520.8,159.5z"/>
			<path id="XMLID_48_" fill="#FBAE25" d="M532.6,174.5c-0.3,1.2-0.7,1.8,0.6,1c1.4-0.8,9.4-5.1,11.2-6c1.8-0.9,5.2-3,1.9-6.7
				c-3.2-3.7-6.8-4.8-9.1-5.1c-2.3-0.3-2.4,2.3-2.6,4.2C534.5,163.6,533.1,172.2,532.6,174.5z"/>
		</g>
		<g id="XMLID_36_">
			<path id="XMLID_46_" fill="#F79029" d="M594.5,122.8c0.8,2,1.4,4,1.6,6c0.3,2.1,0.2,4.2,0,6.2c-0.3,2.1-0.9,4.1-1.7,6
				c-0.8,1.9-1.8,3.8-3.1,5.4c-1.3,1.6-2.9,3-4.5,4.3c-1.6,1.2-3.4,2.2-5.4,3c-2,0.8-4,1.4-6,1.7c-2.1,0.3-4.2,0.2-6.2-0.1
				c-2.1-0.3-4.1-0.8-6-1.6c-1.9-0.8-3.7-1.9-5.3-3.2c-1.6-1.3-3.1-2.7-4.4-4.4c-1.2-1.6-2.4-3.4-3.2-5.3c-0.8-2-1.3-4-1.6-6
				c-0.3-2.1-0.1-4.2,0.2-6.2c0.3-2.1,0.7-4.1,1.5-6c0.8-1.9,1.9-3.7,3.2-5.3c1.3-1.6,2.6-3.2,4.3-4.5c1.6-1.2,3.5-2.2,5.4-3
				c2-0.8,4-1.4,6-1.7c2.1-0.3,4.2-0.1,6.2,0.1c2.1,0.3,4,0.9,6,1.7c1.9,0.8,3.8,1.7,5.5,2.9c1.6,1.3,3,2.8,4.3,4.5
				C592.5,119.1,593.7,120.9,594.5,122.8z"/>
			<path id="XMLID_45_" fill="#FFEFD5" d="M592.6,123.5c0.9,2.2,1.2,4.5,1.3,6.7c0.2,2.3-0.1,4.5-0.6,6.7c-0.5,2.2-1,4.5-2.2,6.4
				c-1.2,1.9-2.5,3.9-4.3,5.4c-1.7,1.4-3.9,2.4-6.1,3.3c-2.2,0.9-4.4,1.4-6.6,1.6c-2.3,0.2-4.5-0.4-6.7-0.9c-2.2-0.5-4.6-0.8-6.6-2
				c-1.9-1.2-3.8-2.7-5.3-4.5c-1.4-1.7-2.4-3.9-3.3-6.1c-0.9-2.2-1.1-4.4-1.3-6.7c-0.2-2.3-0.2-4.6,0.3-6.8c0.5-2.2,1.3-4.4,2.5-6.4
				c1.2-1.9,2.5-3.9,4.3-5.4c1.7-1.4,3.7-2.8,5.9-3.7c2.2-0.9,4.6-0.8,6.8-0.9c2.3-0.2,4.6-0.1,6.8,0.4c2.2,0.5,4.4,1.3,6.4,2.5
				c1.9,1.2,3.4,3,4.9,4.7C590.3,119.6,591.7,121.4,592.6,123.5z"/>
			<path id="XMLID_44_" fill="#FBAE25" d="M566.3,114.1c-0.1,1.7,4.7,14.8,6.2,15.1c0,0,5.8-13.3,5.9-14.9
				C578.5,112.7,566.5,112.4,566.3,114.1z"/>
			<path id="XMLID_43_" fill="#FBAE25" d="M573.3,130.3c2.8-0.7,15.4-4,16.3-5.4c0.9-1.4-7.2-10.9-8.6-9.9
				C579.6,116,571.8,130.7,573.3,130.3z"/>
			<path id="XMLID_42_" fill="#FBAE25" d="M555.1,137.3c2.7,0.6,14.7-4.1,14.8-5.9c0.2-1.8-12.9-5.7-15.4-5.2
				C552.8,126.6,552.4,136.7,555.1,137.3z"/>
			<path id="XMLID_41_" fill="#FBAE25" d="M556.5,123.3c0.7,1.4,12.9,7,13.6,6.3c0.7-0.7-4.7-13.8-6.2-14.7
				C562.5,113.8,555.2,120.8,556.5,123.3z"/>
			<path id="XMLID_40_" fill="#FBAE25" d="M576.2,149.7c-1.1-6-3.1-15.7-4.2-15.7c-0.6,0-5.5,12.2-6.8,14.4
				C563.6,151,576.6,152,576.2,149.7z"/>
			<path id="XMLID_39_" fill="#FBAE25" d="M570.8,133.3c-1.1-1.1-10.7,4.8-14.8,6.8c-1.5,0.8,3.9,8.9,6.4,8
				C565.2,147.1,571.9,134.4,570.8,133.3z"/>
			<path id="XMLID_38_" fill="#FBAE25" d="M590.3,127.4c-4.5,0.9-16.2,2.7-17,4.4c-0.8,1.7,13.7,7.4,16.1,6.3
				C591.9,137,593.1,126.8,590.3,127.4z"/>
			<path id="XMLID_37_" fill="#FBAE25" d="M574.7,134.5c-1-0.5-1.4-1-1,0.4c0.4,1.4,2.5,9.3,2.9,11.1c0.4,1.7,1.5,5.2,5.4,3.1
				c3.9-2.1,5.7-5,6.4-6.9c0.7-1.9-1.6-2.6-3.1-3.1C583.8,138.5,576.6,135.5,574.7,134.5z"/>
		</g>
		<g id="XMLID_11_">
			<path id="XMLID_35_" fill="#EEBC7F" d="M521.3,112.8c-2.9,2.2-4.7,6-5.2,9.6c-0.8,5.2,1.2,11.8,4.3,16c1.3,1.7,1.7,2.4,3.8,2.4
				c2.7,0,5.2-0.7,7.8-1.2c1.2-0.2,4.4-0.3,5.3-1.2c0.9-0.9,0.8-4.4,1.2-5.8c0.7-2.9,1.5-5,3.4-7.3c1.9-2.3,4.1-3.3,2.2-6.5
				c-2.1-3.5-5.3-7.4-8.7-9.7c-2.5-1.7-5.1-1.4-7.6-0.3C525.1,110.1,523.7,111,521.3,112.8z"/>
			<path id="XMLID_34_" fill="#E0845F" d="M524.8,136.1c0.2-5.3,0.8-11.2,3.2-16c1.3-2.7,3.1-5.2,4.7-7.7c0.6-1,1.6-2.2,2.1-3.5
				c-2.3-1.3-4.8-1.1-7.1-0.1c-2.7,1.2-4.1,2.1-6.5,3.9c-2.9,2.2-4.7,6-5.2,9.6c-0.8,5.2,1.2,11.8,4.3,16c1.3,1.7,1.7,2.4,3.8,2.4
				c0.2,0,0.3,0,0.5,0C524.8,139.2,524.8,137.6,524.8,136.1z"/>
		</g>
		<g id="XMLID_4_">
			<path id="XMLID_9_" fill="#EEBC7F" d="M576.2,187.8c3,0.8,6.2-0.1,8.6-1.8c3.4-2.4,6-7.6,6.6-12.1c0.2-1.9,0.3-2.6-0.9-4
				c-1.6-1.9-3.6-3.3-5.4-4.8c-0.8-0.7-2.8-3-3.9-3.1c-1.1-0.1-3,1.9-4,2.4c-2.1,1.1-3.8,1.7-6.2,1.7c-2.5,0-4.4-1-5,2.1
				c-0.7,3.5-1.1,8-0.3,11.7c0.5,2.7,2.3,4.4,4.4,5.6C572.3,186.7,573.7,187.1,576.2,187.8z"/>
			<path id="XMLID_8_" fill="#E0845F" d="M587.4,172.1c-3.2,2.8-6.9,5.8-11.1,6.8c-2.3,0.6-4.8,0.8-7.2,1c-0.9,0.1-2.2,0.1-3.3,0.5
				c0.6,2.4,2.3,4,4.3,5.1c2.3,1.2,3.7,1.7,6.1,2.4c3,0.8,6.2-0.1,8.6-1.8c3.4-2.4,6-7.6,6.6-12.1c0.2-1.9,0.3-2.6-0.9-4
				c-0.1-0.1-0.2-0.2-0.3-0.3C589.2,170.3,588.3,171.3,587.4,172.1z"/>
		</g>
	</g>
	<g id="XMLID_2_">
		<path id="XMLID_7635_" fill="#F9E3D2" d="M915,82.5c-2.9-2.3-3-4.5-1.3-7.4c1.8-3,4.6-5,6.5-7.8c1.7-2.5,4.8-5.3,2-8.2
			c-2.7-2.8-6.3-1.5-9.5,0.2c-1.9,1.1-3.5,2.7-4.6,4.5c-1.2,1.8-2.4,3.7-3.3,5.7c-2.4,5.2-6.7,6.9-12,6.6
			c-5.6-0.3-10.7,0.9-15.1,4.7c-4.1,3.6-8.1,7.4-11,12c-3.1,4.9-6.4,9.9-6.9,16c-0.7,9.9,6.3,21.2,15.5,25.4
			c1.8,0.8,3.4,1.3,2.4,3.7c-2.5,6.2-2.6,12.5-0.7,18.8c0.6,2.1-0.1,3.3-2.2,4c-2.8,0.9-5.3,2.3-7,4.7c-4.3,6.3-7,13.2-7.2,20.9
			c-0.3,11.3,6.2,19.5,13.1,27.3c4.5,5.1,10.5,7.6,17.5,7.4c1.8-0.2,3.6-0.1,5.3-0.5c13.7-3.2,27.9-15.8,23.7-37
			c-1.5-7.6-4.3-14.3-11.4-18c-6.4-3.3-12.8-6.8-20.2-7.2c-1.8-0.1-2.6-1.1-3.3-2.6c-2.9-6.3-0.8-12.3,1.1-18.3
			c0.4-1.4,1.7-1.5,3-1.5c2.9,0,5.7,0.2,8.6-0.1c5.9-0.7,11.9-1.4,15.3-7.1c3.1-5.1,5.7-10.5,8.5-15.7
			C927.1,103.1,922.9,88.8,915,82.5z M889.4,167.2c6.3,1.3,11.8,4.3,16.6,8.4c4.6,4,4,9.6,4.6,16.1c0.4,4.2-1.4,8.3-4.5,12.4
			c-7.4,9.5-19,7.9-26.5,0.8c-8.4-7.9-9.6-17.9-6.8-28.6C874.1,171.3,883.8,166,889.4,167.2z M904.3,124.2c-0.4,0.4-0.9,0.7-1.3,0.9
			c-9.4,5.2-25.7,0.8-30.6-8.6c-2.6-5-2.9-10.6,0.2-15.3c4.9-7.4,10.3-14.5,20.2-15.7c6.2-0.7,11.9,0.9,16.7,4.4
			c4.6,3.4,4,9.2,4.6,13.8C913.8,112.4,910.3,118.9,904.3,124.2z"/>
		<path id="XMLID_7632_" fill="#F9E3D2" d="M779,154.9c0.6-11.4-0.1-22.9-0.4-34.3c-0.2-10.2-1.2-20.6-3-30.8
			c-1.8-10.3-7.2-15.8-17-17.1c-11.7-1.6-21.8,2.3-29.8,11c-2.4,2.6-1.9,6.5,0.7,8.3c3,2.1,5.5,1.4,7.8-2c4.5-6.5,11.1-8.5,18.4-8
			c5.3,0.4,8.7,4.1,9.9,9c1.5,6.1,2.7,12.3,2.5,18.6c0,1.5,0.1,3,0,4.5c-0.2,3.9-0.8,4.3-4.4,2.7c-2.5-1.1-5-2.4-7.6-2.9
			c-11.8-2.1-18.8-0.6-25.5,10.9c-3,5.1-4.4,10.8-5.3,16.7c-0.4,2.8-0.2,5.4,0.8,8c3.2,8.4,15.8,16.1,24.6,14.9
			c4.2-0.6,8.1-2.2,11.9-4.2c7.2-3.9,7.2-4,7.2,4.2c0,3,0.6,5.9,3.9,6.3c3.6,0.4,4.7-2.5,5.4-5.5C779.9,161.7,778.8,158.3,779,154.9
			z M765.5,146.1c-5.7,5.3-11.3,10.5-19.6,7.3c-11.3-4.3-12-6.3-8.8-18.6c1.7-6.7,6.9-10.1,13.6-11.2c7.1-1.2,12,2.1,15.9,7.5
			c1.4,2,1,4.5,0.9,6.9C767.4,140.7,768.3,143.5,765.5,146.1z"/>
		<path id="XMLID_7628_" fill="#F9E3D2" d="M685.7,71.1c6.5-1.8,12.1-0.6,16.6,4.7c2.4,2.8,2.6,6.4,3.7,9.8c0.6,1.9,1.6,3.3,2.9,3.8
			c1.9,0.8,3.8,0.3,5.7-0.9c2.3-1.4,3.5-6.6,1.2-10.5c-6-10.1-14.6-15.8-24.9-16.4c-10.1,0.2-17.6,3-23.6,9.2
			c-5.5,5.7-9.4,12.4-11.9,19.8c-1.6,4.7-1.8,9.9,0.5,14.4c3.7,7.2,7.5,13.9,17.9,13.7c4.1-0.1,8.4,0.3,12.6,0
			c5.4-0.5,9.6,1.2,12.4,6c1.2,2,2.7,3.8,3.8,5.8c3.8,6.9,1.4,13.2-2.2,19.3c-3.4,5.7-8.4,8.5-15.1,7.6c-4.5-0.6-8.9-1.5-12.3-4.8
			c-2.9-2.8-1.6-6.3-1.4-9.7c0.2-3-2.2-5.2-5.2-5c-3.8,0.2-7.2,5-6.5,8.8c1.8,9.8,8.4,15.4,17.2,18.5c6.5,2.3,13.5,4.6,20.2,0.9
			c8.7-4.8,14.9-12.2,16.5-21.9c1.5-8.5,0.3-9.4-2.2-17.3c-1.6-5-3.2-7.2-5.9-10.4c-2.8-3.3-5.5-4.2-9.6-5
			c-5.8-1.2-11.7-0.4-17.5-0.7c-9.1-0.4-13.4-4.9-13.4-13.9C665.1,85.9,674.5,74.2,685.7,71.1z"/>
		<path id="XMLID_7624_" fill="#F9E3D2" d="M845.2,118.9c-0.2-6.2-1.2-12.3-0.7-18.6c0.4-5-4.1-7.1-8.4-4.4c-2.5,1.5-2.4,3.7-2.5,6
			c-0.2,11.3,4,22.3,1.8,33.7c-0.4,1.9,0.5,4.8-1.6,5.5c-2.1,0.7-3.4-1.9-4.5-3.5c-5-7.5-10.9-14.3-16.6-21.2
			c-2.6-3.2-5.3-6.2-8.1-9.2c-3.7-3.9-8.7-5-11.1-1.9c-2.3,2.9-4.4,6.8-3.6,10.4c1,4.6,1.1,9.2,1.8,13.7c1.8,11.1,4.4,22.2,4.3,34.6
			c-0.1,0.8-0.2,2.7-0.4,4.6c-0.3,2.7,1.4,4,3.5,4.9c2.3,1.1,3.9-0.2,5.2-2c1.9-2.8,1.9-5.8,1.4-9c-2.1-13.7-2.2-27.7-6.1-41.2
			c-0.3-1-0.6-2.3,0.7-2.9c1-0.4,1.8,0.4,2.5,1c2.9,2.2,4.9,5.1,7.2,7.8c7.5,9.2,16.3,17.6,20,29.5c1.4,4.5,3.4,5.3,7.8,4.3
			c5.8-1.3,8.4-3.7,7.9-8.1C844.5,141.5,845.6,130.2,845.2,118.9z"/>
		<path id="XMLID_7623_" fill="#F9E3D2" d="M957.7,121.2c1.6-2.7,3.5-4.7,6.4-6.1c2.9-1.3,6-1.8,9.1-2.4c12.7-2.5,12.7-2.5,17.7,9.2
			c0.5,1.1,0.8,2.3,2.5,2.3c2-0.1,6.2-3.8,6.2-5.8c0-8.2-7.4-17.8-15.9-16.8c-4.5,0.6-8.8,1.8-13.1,2.9c-0.9,0.2-1.9,0.8-2.7-0.1
			c-0.9-0.9-0.6-2-0.2-3.1c0.8-2.2,2.7-3.4,4-5.1c1.8-2.4,3.2-5.2,1.4-7.9c-1.8-2.6-4.8-2.8-7.8-2c-1.9,0.5-2.7,1.8-3.6,3.5
			c-0.6,1.1-3.1,6.1-3.8,7.2c-1.3,1.9-4.4,8.5-7.7,14.6c-6.9,12.9-12.1,26.6-19.2,39.4c-1.1,2.4-2.9,5,0,7.3
			c2.6,2.2,6.5,1.6,9.1-1.3c2-2.2,3.7-4.7,4.9-7.5C948.9,140.1,952.4,130.3,957.7,121.2z"/>
		<path id="XMLID_6803_" fill="#F9E3D2" d="M992,68.7c7.5-0.4,13.5-4,15.9-6.2c3.2-2.9,5.3-6.5,5.6-7.1c3-6.1,3.7-10.5,1.1-17.8
			c-1.7-4.5-5.4-7.7-9.1-10.3c-6.9-4.8-15.1-6.6-23.3-3.8c-9.1,3.2-16.4,21.1-12.9,30.1C973,62.9,981.5,69.2,992,68.7z M989.9,31.6
			c10,0.1,17.4,6.7,17.3,15.6c0,6.2-7.2,13-13.7,12.8c-8.1-0.2-15.5-7.4-15.4-14.9C978.3,38.4,984.3,31.5,989.9,31.6z"/>
		<path id="XMLID_6802_" fill="#F9E3D2" d="M1048.7,127.2c-4-6.9-8.3-14.4-12.8-21.7c-3.7-6-7.2-12.1-10.1-18.4
			c-1.3-2.9-4.3-4.1-7.2-3.2c-3.1,0.9-5.3,4-4.4,6.5c0.5,1.4,1.4,2.8,2.2,4.1c5.3,9,12.5,17.2,16.1,26.7c3.3,8.7,10.2,16.1,13.1,25
			c0.6,1.7,2.1,3.5,4.8,3.4c2.7-0.2,4.6-1.8,5.9-3.6c1.2-1.7,0.3-3.5-0.8-4.9C1052.2,136.9,1050.4,132.4,1048.7,127.2z"/>
		<path id="XMLID_7641_" fill="#F9E3D2" d="M1110.9,147.3c0.9-22.3,1.5-46.7-6.3-74c-2.1-7.5-7.6-12.5-12.5-14.5
			c-6-2.4-12.4-1.6-18.5,0.4c-0.2,0.1-0.5,0.2-0.7,0.2c-4.1,1.4-7.3,3-10.5,5.5c-0.9,0.7-1.7,1.5-2.6,2.2c-0.1,0.1-0.3,0.3-0.4,0.4
			c-6.6,6.3-8.6,15.8-6,24.7c3,10.4,13.9,20.4,29.1,14.9c3.1-1.1,4.9-1.8,7.9-3.4c3.1-1.7,3.2-4.6,2.7-7c-0.3-1.6-2.3-3.4-4.3-3.5
			c-4.3-0.2-3.5,1.8-8,4.5c-2.5,1.5-7.7,1.9-9.5,1.3c-9.7-3.2-9.6-7.9-9.3-15c0.5-9.8,8.2-14.2,16.4-16.3c2.8-0.7,5.6-0.8,7.9-0.3
			c4.5,1,6,3.9,8.4,8.1c5.2,8.8,12.3,56.8,7,76.8c-0.8,2.8-1.3,4-4.2,2.4c-4.5-2.4-9.2-4.2-14.3-3.7c-8.1-0.7-13.7,3.1-17.8,9.5
			c-4.9,7.7-8.5,16.3-6,25.1c3,10.4,16.9,21.6,31.5,14.7c3.1-1.5,6.1-3,9.1-4.6c2.3-1.2,3.4-0.4,3.4,2.1c0,1.9-0.1,3.8,0,5.7
			c0.1,2.6,1.3,4.7,3.9,5c2.6,0.3,3.9-1.7,4.6-3.9c0.5-1.5,0.7-3.2,0.6-4.8C1112.3,182.3,1110,171.8,1110.9,147.3z M1101.9,178
			c-0.9,5.5-14.6,16.8-22.5,13.7c-8.1-3.2-10.8-6.1-10-13.8c1-9.3,7-15.5,15.2-16.5c7-0.8,11.7,2.4,15.6,7.5
			C1101.6,170.9,1102.4,174.8,1101.9,178z"/>
	</g>
	<g id="XMLID_126_">
		<path id="XMLID_151_" fill="#F9E3D2" d="M88.6,127.8c2-1,3.1-2.7,4.2-4.3c0.6-0.9,1.2-1.8,1.9-2.6c2.9-3.1,5.8-6.1,7.8-9.9
			c1.1-2,4.1-2,5.1-0.2c0.6,1.1,0.6,1.8-0.3,2.7c-1,1-2,2-2.4,3.5c-0.3,0.9-1.4,1.6-2.2,2.3c-0.9,0.9-1.8,1.7-2.6,2.6
			c-1.1,1.2-1.6,2.6-0.6,4.1c0.2,0.4,0.4,0.8,0.5,1.2c1,4.5,3.3,8.5,5.3,12.6c0.4,0.8,0.9,1.7,1,2.6c0.3,2.3,1.3,4.3,2.3,6.2
			c1.7,3.2,3.5,6.3,3.8,10c1.1,1.8,1.1,4,1.7,6c0.2,0.7,0.5,1.4,1,1.9c0.7,0.7,1,1.4,0.6,2.3c-0.4,1-1.9,2-2.9,2
			c-0.8,0-1.9-0.9-2.2-1.8c-0.2-0.5-0.2-1-0.3-1.5c-0.4-4.3-2-8.2-3.5-12.1c-1.2-3.2-2.7-6.2-4.4-9.1c-0.2-0.3-0.3-0.6-0.5-1
			c-1.3-3.3-2.6-6.5-3.9-9.8c-0.7-1.9-1.4-3.8-3-5.2c-3.5,2-5.5,5-6.6,8.7c-0.4,1.2-0.1,2.6,0,3.8c0.3,3.6,0.7,7.3,1.1,10.9
			c0.1,1.3,0.2,2.7,0.5,4c0.5,1.8-0.2,3.1-1.2,4.4c-0.7,0.9-1.9,0.4-2.8,0.4c-0.9,0-1-0.8-1.1-1.4c-0.2-1.3-0.2-2.7-0.2-4
			c0-2,0.3-4-0.2-6c-0.3-1.4-0.1-3-0.2-4.5c-0.2-2.6-0.5-5.3-0.7-7.9c-0.1-1.9-0.1-3.9-0.1-5.8c-0.1-2.3-0.2-4.6-0.3-6.9
			c0-0.5-0.1-1-0.3-1.5c-0.5-1.6-0.7-3.1-0.4-4.8c0.3-1.7-0.2-3.6-0.4-5.3c-0.8-5.5-1.9-11-1.7-16.7c0-0.4,0.1-0.7,0-1.1
			c-1-3.1-0.7-6.3-0.7-9.4c0-2.5-0.3-4.8-1.1-7.2c-0.7-2,0.7-5,2.7-5.7c0.3-0.1,0.9,0,1.1,0.3c0.6,0.9,1.5,1.9,1.6,2.9
			c0.3,1.8,0.2,3.7,0.3,5.5c0,0.5-0.1,1-0.1,1.5c0.2,3.5,0.8,7,0.6,10.5c-0.3,3.4,0.4,6.5,0.7,9.8c0.2,2.9,0.5,5.7,0.8,8.6
			c0.1,0.8,0.6,1.5,1,2.3c0.7,1.7,1.2,3.4,1.2,5.2c0,1.9,0,3.7,0,5.6C88.2,126.7,88.4,127.2,88.6,127.8z"/>
		<path id="XMLID_148_" fill="#F9E3D2" d="M281.2,150.5c0-2-0.1-2.1,0-4.1c0-0.4,0-2.5-0.1-2.9c-0.9-4.6-1-6.7-0.5-10.9
			c0.3-2.5,0.6-5-0.1-7.5c-0.1-0.5-0.1-1,0-1.5c0.1-1.1-0.2-2-0.4-3.1c-0.2-1.1-0.1-2.9-0.1-3c0.2-3.7-0.6-4.9,0.3-8.6
			c0.2-0.9,0.1-1.9,0.2-2.8c0.2-1.2,0.4-2.4,0.7-3.5c0.4-1.2,1.3-1.9,2.4-2.3c1.3-0.5,2.5,0.4,2.4,1.8c-0.1,1.8-0.3,3.6-0.6,5.3
			c-0.1,0.8,0.2,1.1,0.9,0.9c0.3-0.1,0.6-0.3,0.9-0.5c2.2-1.2,4.5-2.4,7-3c3.6-0.8,6.8-0.2,9.3,2.8c0.8,0.9,1.5,1.9,2.2,2.9
			c0.6,0.8,1.1,1.8,1.9,2.4c1.6,1.2,1.8,3,2.2,4.7c0.6,3.2,0,6.4-0.6,9.6c-0.6,2.8-1.6,5.2-3.9,7.2c-1.9,1.6-3.4,3.5-5.5,4.8
			c-2.6,1.6-5.2,2.1-8.1,0.8c-1-0.5-2.1-0.9-3.2-1.2c-0.5-0.2-1.1-0.3-1.6-0.4c-1.8-0.1-2.4,0.6-2.2,2.4c0.3,3,0.5,6,0.7,9
			c0.2,4.1,0,8.2,0.4,12.2c0.2,2-0.3,3.8-1,5.6c-0.4,1.1-2.3,2.1-3.3,1.8c-1.1-0.3-1.9-1.7-1.7-3.1c0.1-0.6,0.3-1.1,0.5-1.7
			c0.4-1.6,0.3-2.2,0.3-3.7c0-1.8,0.2-3.5,0.3-3.8c0.2-2.1,0.2-2.5,0.4-4.6C281.1,151.5,281.2,151.4,281.2,150.5z M305.2,123.3
			c-0.4-1.9-0.7-3.7-1-5.4c-0.5-3.5-2.7-5.7-5.6-7.4c-0.9-0.5-1.9-0.8-2.9-0.6c-3.5,0.7-6.4,2.2-8.7,5.1c-0.9,1.2-1.8,2.3-1.7,3.8
			c0,1.1,0.1,2.1,0.2,3.2c0.2,2.2,1,4.3,0.4,6.6c-0.6,2.4-0.1,3.4,2.2,4.3c1.2,0.5,2.5,0.8,3.6,1.4c2.3,1.3,4.5,1.1,6.6-0.4
			c1.2-0.9,2.2-2,3.5-2.9c1.1-0.8,1.9-1.8,2.3-3C304.5,126.4,304.8,124.8,305.2,123.3z"/>
		<path id="XMLID_145_" fill="#F9E3D2" d="M67.7,139.6c-2,1-4,2.1-6.1,3c-2.7,1.2-5.4,1.7-8.3,0.8c-0.4-0.1-0.8-0.2-1.2-0.5
			c-1.6-1.2-3.2-2.4-4.7-3.8c-2.3-2.1-3.2-4.7-2.6-8c0.7-3.7,1.7-7.1,3.9-10.1c1.5-1.9,3.3-3.6,5.7-4c2.4-0.4,5-0.5,7.4,0.5
			c1.6,0.7,3.3,1.5,5.1,2.3c0.1-1.2,0.4-2.4,0.4-3.6c0.2-3.8-0.7-7.6-1.4-11.3c-0.4-2.2-3.2-4.5-5.5-4.7c-1.7-0.1-3.4-0.2-5,0.8
			c-0.4,0.3-0.9,0.5-1.3,0.7c-1.8,0.5-3,1.5-3.8,3.2c-0.6,1.3-1.3,1.6-2.4,1.3c-1.3-0.3-2.1-1.3-2.1-2.6c-0.1-1.1,0.3-2.1,1.1-2.9
			c4-3.8,8.7-5.7,14.2-5.4c5.3,0.3,8.7,3.7,9.7,9.5c0.3,1.7,0.3,3.4,0.5,5.1c0.3,2.9,0.7,5.8,1,8.7c0.1,0.6,0.1,1.1,0.1,1.7
			c0,3.3,0,6.6,0,9.9c0,4.3,0.2,8.6,0.2,12.9c0,0.8-0.3,1.7-0.6,2.5c-0.3,0.8-1,1.4-1.9,1.4c-0.8,0-1.8-1.1-1.9-2.1c-0.1-1,0-2,0-3
			C68.4,141.3,68.6,140.4,67.7,139.6z M67.1,129.8c0-0.6-0.2-1.7-0.1-2.6c0-0.6-0.1-0.9-0.6-1.2c-0.5-0.3-0.9-0.7-1.2-1.2
			c-0.6-1-1.5-1.5-2.5-1.9c-1.9-0.8-3.9-0.7-5.9-0.3c-4.3,1-6.5,4-6.8,8.3c-0.3,4.2-0.9,4,3.2,6.5c3.4,2,8.2,1.9,11.1-1.6
			c0.4-0.5,0.7-0.9,1.3-1.3c1.2-0.8,1.5-1.4,1.5-2.5C67.1,131.2,67.1,130.5,67.1,129.8z"/>
		<path id="XMLID_142_" fill="#F9E3D2" d="M195.6,139.6c-1.8,0.9-3.5,1.8-5.2,2.7c-2.3,1.2-4.7,1.8-7.2,1.5c-1-0.1-2.1-0.2-2.8-0.7
			c-2-1.4-3.9-2.9-5.6-4.6c-1.7-1.6-2.3-3.7-2.1-6.1c0.5-3.8,1.3-7.5,3.6-10.7c0.9-1.2,2-2.3,3.1-3.2c1.3-1,2.8-1.5,4.6-1.6
			c3.9-0.3,7.3,0.9,10.7,3.1c0.7-1.6,0.9-3.2,0.7-4.8c-0.4-3-0.8-6-1.1-8.9c-0.4-3.3-3.2-5.8-6.5-6c-1.6-0.1-3.1,0.2-4.5,1
			c-0.4,0.2-0.7,0.5-1.1,0.6c-1.8,0.4-2.9,1.6-3.8,3.2c-0.9,1.8-3.2,1.7-4.2,0.1c-0.5-0.8-0.2-3.2,0.5-4c1.6-1.7,3.4-3,5.6-4
			c3.6-1.6,7.3-2.2,11.2-1.3c2,0.5,3.5,1.4,4.7,3.1c1.7,2.4,2.6,5,2.9,8c0.4,4,0.1,8,1.2,11.9c0.1,0.4,0.1,0.9,0.1,1.3
			c0,5.9,0.1,11.8,0.1,17.6c0,1.3,0.1,2.7,0.2,4c0.1,1.4,0,2.7-0.7,4c-0.4,0.8-1.1,1.5-2,1.4c-0.9-0.1-1.7-0.8-1.8-1.9
			c-0.1-0.7,0-1.4,0-2.1C196.3,142,196.6,140.8,195.6,139.6z M185.9,138.6c2.2,0.3,4-0.8,5.7-2.3c0.8-0.7,1.3-1.9,2.5-2.2
			c0.3-0.1,0.5-0.7,0.6-1.1c0.1-1.2-0.1-2.4,0-3.6c0.1-1.9-0.4-3.4-1.8-4.7c-0.9-0.8-1.7-1.5-2.8-1.9c-1.5-0.6-3-0.5-4.5-0.3
			c-2.7,0.4-5.1,1.5-6.5,4c-1.4,2.4-1.6,5-1.6,7.7c0,0.4,0.3,1,0.7,1.3C180.3,137.2,182.6,138.7,185.9,138.6z"/>
		<path id="XMLID_141_" fill="#F9E3D2" d="M383.7,116.9c1.5-0.4,2.9-0.9,4.3-1.3c1.4-0.4,2.7-0.8,4.1-1.1c1.1-0.3,2.1,0.2,3,0.7
			c0.4,0.2,0.7,0.8,0.8,1.2c0.5,2.4,0,3.4-2.3,4c-1.8,0.5-3.8,0.7-5.6,1.1c-1.3,0.3-2.6,0.5-3.9,0.8c-0.8,0.2-1,0.6-0.9,1.4
			c0.2,2.9,0.2,5.9,0.3,8.8c0.1,2.1,0.1,3.5,0.4,5.4c0.1,0.3,0.3,2.9,0.4,4c0.1,1.4,0.7,4.8,1.2,8.4c0.2,1.6,0.2,3.3,0.3,4.9
			c0,0.4-0.1,0.8-0.3,1.2c-0.5,1.4-1.5,2.2-2.4,2.1c-1.2-0.2-2.5-1.7-2.5-2.9c0.3-5.4-1.2-10.7-1.6-16c-0.1-0.7-0.2-1.5-0.1-2.1
			c0.8-3.6-0.2-7.1-0.1-10.7c0-0.8-0.2-1.6-0.4-2.3c-0.4-1.5-1-1.9-2.5-1.6c-0.6,0.1-1.2,0.4-1.9,0.4c-0.9,0-1.8-0.2-2.6-0.5
			c-0.3-0.1-0.7-0.8-0.7-1.2c-0.1-1.8,1.5-3.7,3.3-4c1-0.2,2-0.4,2.9-0.4c0.8,0,1-0.4,1-1.1c-0.2-1.6-0.4-3.1-0.5-4.7
			c-0.3-2.8-0.9-5.6-0.5-8.5c0.3-1.9-0.3-3.8-0.5-5.8c-0.4-4-0.4-8,1.1-11.9c0.5-1.2,1.2-2.5,2-3.5c1.4-1.7,3.1-2.9,5.6-2.5
			c1.5,0.2,3,0.2,4.4,0.5c1.5,0.3,2.7,1.3,3.5,2.6c1.6,2.6,3.1,5.2,4.7,7.7c1,1.5,1.4,3,0.8,4.7c-0.1,0.4-0.3,0.8-0.5,1.1
			c-0.8,0.8-1.7,1.7-3,1.2c-1.2-0.5-1.6-1.5-1.7-2.8c-0.2-1.5-0.4-3-0.9-4.4c-1.2-4-4.3-5.9-8.1-5.7c-0.6,0-1.1,0.2-1.3,0.9
			c-1.1,2.7-2.3,5.3-2.2,8.3c0,0.9,0,1.8,0.2,2.6c0.7,2.2,0.8,4.5,0.8,6.8c0,2.8,0.1,5.6,0.7,8.3c0.3,1.7,0.1,3.4,0.8,5.1
			C383.3,116.2,383.5,116.5,383.7,116.9z"/>
		<path id="XMLID_138_" fill="#F9E3D2" d="M114.9,120.7c-0.3-5.9,1-11.3,4.3-15.9c2.9-4.2,7-6.2,12-6.3c1.7,0,3.4,0,5,0.8
			c0.7,0.4,1.5,0.7,2,1.2c1.4,1.7,2.8,3.3,3.7,5.4c0.2,0.4,0.6,2,0.6,2.5c0.3,1.7,0.9,3.6,1,4.2c0.3,1.6,0.7,2.1,0.7,4.4
			c0,0.5-0.1,0.8-0.3,1.1c-1.1,1.5-2.9,1.9-4.4,2.1c-4.4,0.6-8.7,1.1-13,2c-1.3,0.3-2.7,0.4-4,0.7c-0.4,0.1-0.8,0.3-1.2,0.3
			c-1,0.1-1.2,0.7-0.8,1.5c1.1,2.3,1.8,5,3.4,6.9c1.9,2.3,4.2,4.5,7.1,5.8c1.8,0.8,3.7,1.4,5.7,1.2c1.4-0.1,2.3,0.6,3.3,1.3
			c0.9,0.7,0.8,1.5-0.2,2c-1.1,0.6-2.1,1.1-3.3,1.5c-0.6,0.2-1.3,0-1.9-0.1c-4.4-0.8-7.9-3.1-11.2-5.9c-0.8-0.7-1.5-1.5-2.4-2.2
			c-2.4-1.9-3.9-4.5-4.9-7.2C115.1,125.4,115,122.9,114.9,120.7z M139.1,114.4c-0.1-1.2-0.1-2.5-0.2-3.9c-0.2-2.7-1.7-4.8-3.7-6.5
			c-0.5-0.5-1.2-0.8-1.9-0.9c-3-0.6-7.9,0.8-9.5,3.6c-0.9,1.6-1.9,3.2-2.6,4.9c-0.6,1.7-1.3,3.5-1.1,5.4c0.1,1.2,0.3,1.3,1.5,1
			c2.6-0.5,5.3-1,7.9-1.5c1-0.2,2.1-0.4,3.1-0.6c0.7-0.1,1.4-0.1,2-0.3C136,115.3,137.4,114.9,139.1,114.4z"/>
		<path id="XMLID_137_" fill="#F9E3D2" d="M43.8,116c0,0.4,0,0.7,0,1.1c0,0.9-0.5,1.3-1.3,1.3c-0.4,0-0.7,0-1.1,0
			c-3.1,0-6.1,0.3-9.1,0.8c-0.3,0.1-0.6,0-0.9,0c-2-0.1-1.8,0.2-1.8,2c0,7.4,0,14.8-0.2,22.2c-0.1,3.2,0.3,6.4,0.5,9.6
			c0,0.9,0.2,1.6,1.2,1.8c1,0.3,1.7-0.2,2.3-0.8c0.4-0.4,0.5-1,0.9-1.4c0.6-0.8,1.4-1.3,2.4-1c1.1,0.3,1.7,1.1,1.9,2.1
			c0.5,2.3-0.5,4.1-2.7,4.9c-1.5,0.5-3,0.9-4.5,1.2c-0.4,0.1-1,0.1-1.7,0c-1.5-0.2-2.1-0.8-3.1-1.9c-0.2-0.3-0.4-1.1-0.4-1.5
			c-0.2-2.7-0.7-5.3-0.6-8.1c0.2-6.7-0.1-13.5-0.3-20.2c-0.1-1.7,0-3.4,0.3-5.1c0.1-0.7,0-1.4-0.3-2.1c-0.3-0.7-1-1.2-1.9-1
			c-2.7,0.4-5.3,0.8-8,1.2c-1,0.1-2,0.2-2.7-0.9c-0.6-0.8-0.3-2.1,0.5-3.2c0.8-1.1,1.9-1.6,3.3-1.7c2.1-0.1,4.1-0.2,6.2-0.4
			c0.6,0,1.1-0.3,1.6-0.4c0.9-0.3,1.4-0.9,1.3-1.9c-0.1-2.1-0.2-4.1-0.2-6.2c-0.1-4.4-0.6-8.9-0.2-13.3c0.2-1.5,0.8-2.6,2-3.4
			c1.8-1.2,3.5-0.5,3.6,1.7c0,1.2-0.2,2.4-0.5,3.6c-0.7,2.5-0.8,5-0.4,7.6c0.3,1.9,0,3.9,0,5.8c0,1.6-0.2,3.1-0.2,4.7
			c0,1.1,0.3,1.5,1.4,1.4c1.6-0.1,3.2-0.3,4.8-0.6c1.9-0.3,3.8-0.8,5.7-0.7c1.9,0.1,2.2,0.3,2.3,2.3C43.9,115.6,43.9,115.8,43.8,116
			C43.9,116,43.9,116,43.8,116z"/>
		<path id="XMLID_134_" fill="#F9E3D2" d="M367.5,123.9c0,0.4,0,0.9,0,1.3c-0.2,5-2.2,8.3-5.8,11.1c-2.1,1.7-4.5,2.7-7.3,2.5
			c-0.8-0.1-1.6-0.1-2.4,0c-3,0.3-5.4-1.1-7.5-3c-2.8-2.7-5-5.9-6.5-9.5c-1.5-3.6-1.1-7.3,0.1-10.9c0.4-1.4,1.1-2.6,1.8-3.9
			c1.3-2.6,3.7-3.8,6.3-4.7c4.1-1.4,7.8-0.7,11.6,1c1,0.5,1.9,1,2.9,1.4c3.8,1.5,5.8,4.6,6.5,8.5
			C367.5,119.6,367.5,123.4,367.5,123.9z M353.1,133.4c0.5,0,1,0,1.5,0c2.9-0.1,7.3-3.1,7.9-5.8c0.9-3.9,1.5-7.9-2.2-11
			c-0.5-0.5-1-1.1-1.5-1.6c-1.6-1.6-3.2-3.1-5.3-3.9c-1.4-0.5-2.8-0.6-4.2-0.1c-1.5,0.5-2.8,1.3-4.3,2c-0.9,0.4-1.5,1.1-1.8,2.1
			c-0.8,3.1-1.7,6.2-0.4,9.4c0.5,1.4,1.1,2.8,2,4C346.8,131.3,349.3,133.5,353.1,133.4z"/>
		<path id="XMLID_133_" fill="#F9E3D2" d="M244.7,144.8c0.6,2.9-0.6,5.8-1.6,8.6c-1,3-4.8,7.1-9.2,6.3c-1.4-0.2-2.8-0.9-4.1-1.6
			c-0.7-0.3-0.7-1.3-0.1-1.8c0.8-0.7,1.8-1.1,2.9-1c1.2,0.1,2.3,0,3.3-0.8c0.3-0.2,0.6-0.4,0.8-0.7c1.2-2.2,2.8-4.4,3.4-6.9
			c0.3-1.4,0.3-2.8-0.2-4.2c-0.7-2.1-1.2-4.3-2-6.3c-1.2-2.9-2.5-5.8-4-8.6c-2.2-4-3.5-8.3-4.6-12.7c-0.4-1.5-0.3-3,0.2-4.5
			c0.3-1.1,0.5-2.2,0.5-3.4c-0.1-2.6,0.6-5,2.1-7.1c1.9-2.7,3.8-5.4,6-7.8c1.6-1.7,3.5-3.4,6-4c1.1-0.3,2.1,0.1,2.7,1
			c0.6,1,0.6,1.8-0.4,2.7c-0.9,0.8-1.7,1.5-3,2.3c-0.5,0.3-0.7,0.6-1.1,0.9c-1,0.6-1.1,1.1-2.1,2.2c-0.2,0.2-0.5,0.6-0.7,0.9
			c-1.3,2-2.7,4.1-3.8,6.2c-1.2,2.2-1.7,4.7-1.2,7.3c0.3,1.8,0,3.8,0.6,5.5c0.9,2.9,2.2,5.8,3.4,8.6c1.1,2.4,2.3,4.6,3.5,6.9
			C243.9,136.6,245,140.5,244.7,144.8z"/>
		<path id="XMLID_130_" fill="#F9E3D2" d="M248.8,87.1c0-4.9,1.1-8.1,3.3-11.1c2.4-3.1,5.5-3.9,9.1-3.3c0.6,0.1,1.2,0.3,1.9,0.4
			c2.4,0.6,4.5,1.6,6.2,3.6c1.5,1.7,3.4,3.3,3.9,5.6c0.3,1.5,0.3,2.4-0.1,4.1c-0.3,1.7-1,3.2-1.6,4.3c-0.7,1.1-1.7,2.2-2.7,3.1
			c-1,1.1-1.4,1.3-2.9,1.8c-2,0.7-3.7,1.2-5.8,1.1c-4-0.2-7.5-1.6-9.7-5.3C248.9,89,248.8,89,248.8,87.1z M253.2,84.6
			c0.2,2.1,0.4,4.3,2.6,5.6c1.4,0.8,2.9,1.6,4.5,2.1c0.9,0.3,2.1,0.3,2.9-0.1c1.6-0.7,3.1-1.7,4.6-2.7c0.3-0.2,0.6-0.6,0.7-1
			c1.3-3.2,0.2-7.2-2.7-9.2c-1.9-1.3-4.2-1.8-6.4-2c-0.8-0.1-1.8,0.2-2.4,0.7C254.9,79.6,253.3,81.7,253.2,84.6z"/>
		<path id="XMLID_129_" fill="#F9E3D2" d="M264.8,111.8c0.5,4.6,0.9,9.2,1.4,13.8c0.1,1.4,0.3,2.7,0.4,4.1c0.3,3.4-0.3,4.9,0.4,8.2
			c0.3,1.4,0.4,3.8,0.4,4.6c-0.2,2.8-0.3,5.4,0.3,8.1c0.1,0.3,0.1,0.6,0.1,0.8c0.2,2.4-1.6,4.1-4,4c-0.9-0.1-1.3-0.7-1.5-1.4
			c-0.2-1.3-0.5-2.7-0.4-4c0.1-2,0-2.8-0.4-4.6c-0.1-0.3-0.1-2-0.1-2.3c0-0.4,0.1-1.4,0-2.6c-0.2-2.3-0.3-3.1-0.2-5.3
			c0.2-4-0.5-8-1-12c-0.5-3.8-0.9-7.5-1.5-11.3c-0.3-1.9,1.5-3.7,3.4-4c1.2-0.2,2.5,1,2.7,2.3c0.1,0.5,0,1,0,1.5
			C264.9,111.8,264.9,111.8,264.8,111.8z"/>
		<path id="XMLID_128_" fill="#F9E3D2" d="M114.7,167.8c-0.5,0-1,0.1-1.5,0.1"/>
		<path id="XMLID_127_" fill="#F9E3D2" d="M281.7,166.6c-0.4,0-0.7-0.1-1.1-0.1"/>
	</g>
</g>
</svg>
